Coordinates
version=1
nRows=6
nColumns=40
inDegrees=yes

Units are S.I. units (second, meters, Newtons, ...)
If the header above contains a line with 'inDegrees', this indicates whether rotational values are in degrees (yes) or radians (no).

endheader
time	pelvis_tilt	pelvis_list	pelvis_rotation	pelvis_tx	pelvis_ty	pelvis_tz	hip_flexion_r	hip_adduction_r	hip_rotation_r	knee_angle_r	knee_angle_r_beta	ankle_angle_r	subtalar_angle_r	mtp_angle_r	hip_flexion_l	hip_adduction_l	hip_rotation_l	knee_angle_l	knee_angle_l_beta	ankle_angle_l	subtalar_angle_l	mtp_angle_l	lumbar_extension	lumbar_bending	lumbar_rotation	arm_flex_r	arm_add_r	arm_rot_r	elbow_flex_r	pro_sup_r	wrist_flex_r	wrist_dev_r	arm_flex_l	arm_add_l	arm_rot_l	elbow_flex_l	pro_sup_l	wrist_flex_l	wrist_dev_l
      9.15000000000000035527	     27.57289976406626053063	      5.49047192470607914316	   -171.59410886872072410370	      0.39150304658838525063	      0.81103508451457595463	     -0.55792601748462411493	     76.99288051068555205347	    -18.64836488132684877428	     -8.75912580937005458281	     65.77698368233757264534	      1.14802493728737453615	     18.09754788969079086769	      0.00000000000000000000	      0.00000000000000000000	     81.18929238519302771238	     -2.94100954189462893140	      4.76193078719066242854	     66.19262714642590594849	      1.15527928425011072733	     11.23247254409294093591	      0.00000000000000000000	      0.00000000000000000000	    -54.44665348159816886664	     12.93134460520523099092	      1.89072135835789856273	     64.51515044021401479313	    -15.38828649486251975986	     26.76917583661008848139	     21.04598607313124603024	     88.38707662713876800353	      0.00000000000000000000	      0.00000000000000000000	     72.81539632198189337942	    -11.94514138041072470742	     79.15268742722676620360	     17.42903550885973729123	     77.33109664464645049975	      0.00000000000000000000	      0.00000000000000000000
      9.15499999999999936051	     27.56910530190791419614	      5.73600717446983843217	   -171.66336915332297508030	      0.39138694795867573495	      0.81187747079817862428	     -0.55811167028492114639	     76.77433886132735096908	    -18.45562940698011544782	     -9.05813584430864793262	     65.52909888947014849236	      1.14369853148621380967	     18.02595992824934612031	      0.00000000000000000000	      0.00000000000000000000	     81.12982461082879126479	     -2.99768476615398293816	      5.13190735842197742755	     66.03354096961561481294	      1.15250270667036147643	     11.24456750560536733019	      0.00000000000000000000	      0.00000000000000000000	    -54.39747596457620204546	     13.05730161859062299357	      2.14914974364106869942	     64.49727114142082484705	    -15.43119319453857052338	     26.88494022843914166288	     20.97890798172624826634	     88.38202415875410622448	      0.00000000000000000000	      0.00000000000000000000	     72.80336926953721388145	    -12.00338392793647912526	     79.40231674167590369962	     17.59503706958370372604	     77.72111049380778524664	      0.00000000000000000000	      0.00000000000000000000
      9.16000000000000014211	     27.49711231552117851606	      5.64614137639135105218	   -171.76868859694968705298	      0.39112619955737371047	      0.81293469895979664219	     -0.55828031738710337528	     76.59381391487485757352	    -18.34025476334220527974	     -8.98501246174530621147	     65.33593660133041680638	      1.14032721356748956154	     17.96472538770447968659	      0.00000000000000000000	      0.00000000000000000000	     80.84700349360551285827	     -2.97299828261803744667	      5.20703196486982555768	     65.79795973321155599933	      1.14839103843919154713	     11.32868470002051175527	      0.00000000000000000000	      0.00000000000000000000	    -54.41520092054510371327	     12.90730954528788565483	      2.14843233821889878499	     64.38690723059109188853	    -15.50584217306025358596	     27.04860039965540607909	     21.14247085489993693841	     88.37444419301043296855	      0.00000000000000000000	      0.00000000000000000000	     72.60210521491544000128	    -11.73994871475664147908	     78.51541247849021942784	     17.17442726552667409123	     76.91216139584568622922	      0.00000000000000000000	      0.00000000000000000000
      9.16499999999999914735	     27.68718474144812802251	      5.70218659965127017131	   -171.81857290023643258792	      0.39138665779353543073	      0.81340678956676770728	     -0.55848358086459815031	     76.69021769980240321729	    -18.23694305606282384247	     -8.99777884326591248509	     65.12429421796292672298	      1.13663335714095881102	     17.83409516813431494597	      0.00000000000000000000	      0.00000000000000000000	     81.02894764453867537668	     -3.19100049815960806754	      4.99475681256138503983	     65.71217261966503997428	      1.14689377085202237616	     11.02745668554315194854	      0.00000000000000000000	      0.00000000000000000000	    -54.12859295137446480339	     12.89813203625995363666	      2.16680999397938744977	     64.30916343064879470148	    -15.40749758805317171095	     26.78664575051731588928	     21.00884730986220105819	     88.37865153401159545865	      0.00000000000000000000	      0.00000000000000000000	     72.66565096418425184766	    -11.93500172707335416078	     79.37524477196811290014	     17.48553855672561496704	     77.83501965536922284628	      0.00000000000000000000	      0.00000000000000000000
      9.16999999999999992895	     27.63138643386281145808	      5.59594155674354620800	   -171.85590824928317488229	      0.39112420247188950384	      0.81459215553399522136	     -0.55845080293927851223	     76.49845909976875191205	    -18.21428269222223761403	     -8.95498350667994991170	     64.90311096685346115009	      1.13277298115883318097	     17.78616948979333400871	      0.00000000000000000000	      0.00000000000000000000	     80.73863110296179002034	     -3.08177213050327036825	      5.07620868928213031523	     65.44598692037877185612	      1.14224795397775369388	     11.06481598862927206994	      0.00000000000000000000	      0.00000000000000000000	    -54.12549236113947159765	     12.80779761727031562657	      2.09949920474291440442	     64.28485926255417837183	    -15.37684509524589238083	     26.83729030340198917770	     20.92274429734900920153	     88.38234119069856831175	      0.00000000000000000000	      0.00000000000000000000	     72.60568558227224400525	    -11.89884631687740679240	     79.26049624500336676647	     17.40809423610625827905	     78.37344195276300240494	      0.00000000000000000000	      0.00000000000000000000
      9.17500000000000071054	     27.58245045318129129441	      5.54097533126649199886	   -171.94561755303553240992	      0.39088317831696661742	      0.81559887921703055902	     -0.55851352309652457784	     76.33911530328110472965	    -18.13727103954885677695	     -8.95701465217415027098	     64.72910489095785635527	      1.12973600221597969551	     17.63471210440638969885	      0.00000000000000000000	      0.00000000000000000000	     80.51732072050684507758	     -3.03947897297300873021	      5.19560340441341139694	     65.25172035362128042379	      1.13885736276128990418	     11.11691913521182506486	      0.00000000000000000000	      0.00000000000000000000	    -54.10706153894865622078	     12.70911362909922814879	      2.09792711871368497967	     64.18526041473077725641	    -15.43833664910062708486	     27.00550567504584265066	     21.07269729230354826655	     88.38469482828250534112	      0.00000000000000000000	      0.00000000000000000000	     72.55755835601374315047	    -11.91034149242990558548	     79.32042474361625750134	     17.42900823171871493855	     77.91140325546126632617	      0.00000000000000000000	      0.00000000000000000000
